<?xml version="1.0" standalone="no"?>
<!DOCTYPE svg PUBLIC "-//W3C//DTD SVG 20010904//EN"
 "http://www.w3.org/TR/2001/REC-SVG-20010904/DTD/svg10.dtd">
<svg version="1.0" xmlns="http://www.w3.org/2000/svg"
 width="2770.000000pt" height="2770.000000pt" viewBox="0 0 2770.000000 2770.000000"
 preserveAspectRatio="xMidYMid meet">
<metadata>
Created by potrace 1.11, written by Peter Selinger 2001-2013
</metadata>
<g transform="translate(0.000000,2770.000000) scale(0.100000,-0.100000)"
fill="#000000" stroke="none">
<path d="M13418 27695 c-2 -1 -82 -5 -178 -9 -96 -4 -191 -8 -210 -11 -19 -2
-84 -6 -145 -10 -60 -3 -126 -8 -145 -10 -19 -2 -71 -6 -115 -10 -99 -8 -146
-12 -210 -20 -27 -3 -72 -8 -100 -10 -27 -3 -66 -7 -85 -10 -19 -2 -55 -7 -80
-10 -171 -21 -193 -24 -295 -40 -49 -8 -106 -17 -125 -19 -41 -5 -189 -29
-270 -43 -34 -5 -49 -9 -87 -17 -10 -2 -38 -7 -63 -12 -25 -4 -47 -8 -50 -9
-3 0 -23 -4 -45 -8 -22 -5 -105 -22 -185 -39 -80 -16 -152 -31 -160 -33 -87
-18 -407 -96 -570 -139 -421 -112 -698 -198 -1155 -360 -127 -44 -579 -221
-670 -261 -16 -7 -106 -47 -200 -88 -93 -41 -201 -90 -240 -108 -38 -18 -72
-33 -75 -33 -9 -2 -534 -265 -635 -319 -231 -124 -591 -332 -790 -457 -13 -8
-52 -33 -87 -54 -234 -146 -813 -546 -905 -626 -7 -5 -28 -21 -46 -33 -34 -23
-191 -145 -311 -242 -34 -27 -82 -66 -106 -85 -24 -19 -48 -40 -54 -45 -6 -6
-36 -30 -66 -55 -30 -25 -57 -47 -60 -50 -3 -3 -54 -48 -115 -100 -106 -91
-147 -128 -204 -179 -331 -301 -666 -633 -926 -916 -59 -65 -171 -189 -188
-209 -10 -12 -28 -32 -40 -46 -71 -81 -206 -238 -227 -265 -14 -18 -89 -111
-167 -209 -215 -266 -483 -629 -658 -891 -22 -33 -43 -61 -47 -63 -5 -2 -8 -8
-8 -13 0 -5 -16 -31 -35 -59 -92 -131 -515 -826 -515 -847 0 -3 -15 -30 -34
-61 -68 -112 -390 -746 -469 -922 -106 -240 -139 -315 -162 -370 -161 -384
-250 -618 -382 -1005 -68 -200 -83 -248 -170 -545 -54 -182 -58 -199 -68 -241
-2 -12 -9 -36 -15 -54 -6 -18 -12 -41 -15 -51 -2 -10 -27 -111 -55 -224 -28
-113 -61 -248 -72 -300 -11 -52 -24 -115 -30 -140 -5 -25 -11 -56 -14 -70 -3
-14 -13 -68 -24 -120 -11 -52 -22 -111 -25 -130 -3 -19 -12 -69 -20 -110 -16
-83 -47 -270 -60 -360 -22 -155 -45 -328 -50 -380 -4 -36 -8 -67 -10 -70 -2
-3 -6 -39 -9 -80 -4 -41 -9 -91 -12 -110 -6 -43 -10 -90 -19 -200 -3 -47 -8
-101 -10 -120 -9 -85 -21 -286 -32 -505 -15 -308 -7 -1262 12 -1441 2 -21 7
-82 10 -134 5 -90 8 -117 20 -257 3 -32 8 -85 11 -118 2 -33 7 -78 9 -100 3
-22 8 -62 11 -90 3 -27 7 -66 9 -85 3 -19 7 -57 10 -85 3 -27 10 -79 16 -115
5 -36 11 -83 14 -105 5 -46 16 -121 21 -150 2 -10 6 -37 9 -60 6 -38 21 -127
29 -171 2 -12 7 -39 10 -60 4 -22 13 -77 22 -124 9 -47 18 -94 19 -105 9 -57
17 -101 21 -106 2 -3 6 -21 9 -40 4 -27 49 -236 81 -383 3 -12 7 -31 10 -43
11 -54 108 -428 136 -523 16 -58 36 -130 44 -160 28 -106 136 -449 201 -635
62 -181 104 -300 113 -320 4 -11 34 -87 65 -170 220 -576 521 -1217 845 -1800
68 -122 236 -405 329 -553 53 -84 101 -161 106 -170 72 -122 360 -536 540
-777 181 -242 522 -670 600 -751 6 -6 31 -35 56 -64 24 -29 51 -60 59 -69 9
-9 56 -61 105 -116 50 -55 117 -129 150 -165 104 -112 635 -641 744 -740 57
-52 109 -100 115 -105 6 -6 47 -42 91 -80 44 -39 82 -72 85 -75 3 -3 37 -32
75 -64 39 -33 75 -64 80 -70 6 -6 27 -24 48 -39 21 -16 45 -36 55 -46 52 -54
623 -493 797 -614 22 -16 72 -50 110 -78 107 -76 541 -364 575 -381 8 -5 31
-18 51 -31 511 -320 1112 -639 1684 -892 28 -12 71 -32 96 -43 111 -50 380
-160 574 -234 622 -239 1259 -431 1925 -582 156 -35 597 -123 657 -131 29 -4
109 -18 169 -29 12 -2 45 -7 75 -11 30 -3 61 -8 70 -11 9 -2 34 -6 55 -9 84
-9 138 -16 143 -20 3 -1 40 -6 81 -10 41 -4 84 -9 95 -11 11 -2 45 -6 75 -9
30 -3 69 -7 85 -10 17 -2 62 -7 100 -10 39 -4 81 -8 95 -10 14 -2 61 -6 105
-10 44 -3 98 -8 120 -10 89 -10 260 -20 515 -32 232 -10 994 -10 1200 0 268
14 528 31 626 42 23 3 68 7 100 10 33 3 77 7 99 10 22 2 65 7 95 10 102 11
240 28 320 40 14 2 48 6 75 10 28 3 93 13 145 21 52 8 111 17 130 20 19 3 62
10 95 16 33 5 71 12 85 14 816 143 1615 358 2405 647 140 51 385 146 430 167
11 5 76 32 145 60 345 143 876 396 1190 567 146 80 372 206 400 223 8 5 83 50
165 98 374 221 805 511 1183 794 169 126 466 361 567 447 28 24 61 52 75 64
32 26 153 130 160 137 3 3 23 20 45 39 50 42 195 173 295 266 102 95 608 601
700 701 108 116 217 237 296 329 38 44 71 82 74 85 3 3 39 46 80 95 41 50 77
92 81 95 28 25 449 570 542 700 9 14 50 70 89 125 87 122 345 508 417 625 29
47 71 114 93 150 62 99 269 454 323 555 27 50 71 131 97 180 51 94 295 586
343 690 158 346 316 729 442 1075 47 128 209 616 238 715 13 44 40 134 59 200
39 135 105 377 112 415 3 14 7 33 10 42 3 9 6 25 8 35 2 10 14 56 26 103 12
47 23 92 25 100 2 8 17 80 35 160 17 80 34 156 36 170 2 14 9 45 14 70 5 25
12 59 15 75 3 17 7 41 10 55 2 14 9 48 15 75 5 28 12 66 15 85 4 19 15 85 25
145 10 61 24 146 30 190 7 44 14 87 15 96 2 9 6 38 9 65 4 27 8 63 10 79 13
93 18 133 21 155 8 55 20 166 30 278 4 41 8 81 10 90 2 15 6 56 20 222 4 49
16 209 20 280 27 410 27 1239 0 1660 -12 192 -19 285 -30 395 -3 28 -7 79 -10
115 -3 36 -7 81 -10 100 -2 19 -7 60 -10 90 -4 30 -8 69 -10 85 -12 103 -16
134 -21 170 -3 22 -7 51 -9 65 -2 14 -6 43 -9 65 -3 22 -8 60 -11 85 -5 40
-39 252 -51 320 -28 162 -45 257 -58 315 -8 39 -17 87 -20 109 -4 21 -8 41
-10 45 -2 3 -7 22 -10 41 -24 150 -187 811 -251 1020 -8 25 -41 133 -74 240
-86 279 -192 587 -276 805 -25 66 -59 154 -75 195 -30 79 -178 434 -212 510
-12 25 -34 74 -50 110 -96 213 -294 615 -401 815 -335 622 -699 1195 -1116
1755 -131 176 -336 438 -415 531 -17 20 -40 47 -50 60 -25 31 -251 294 -293
339 -17 19 -41 46 -53 60 -123 142 -630 664 -744 765 -6 6 -47 44 -91 85 -151
141 -211 195 -285 260 -41 36 -77 67 -80 70 -4 5 -298 252 -355 299 -102 83
-413 324 -536 414 -176 129 -649 453 -734 503 -11 7 -90 55 -175 108 -85 53
-162 101 -170 106 -49 29 -182 107 -220 128 -25 14 -74 42 -109 64 -34 21 -65
38 -66 38 -2 0 -75 39 -162 86 -139 76 -539 278 -678 342 -141 65 -443 199
-535 237 -234 97 -336 138 -360 145 -14 5 -83 31 -155 58 -71 27 -166 61 -210
76 -44 15 -89 32 -100 36 -18 8 -310 103 -460 150 -74 24 -334 100 -355 105
-8 1 -73 19 -145 38 -127 34 -437 111 -486 121 -13 2 -67 14 -119 26 -88 20
-159 35 -220 46 -14 3 -68 13 -120 24 -52 11 -162 31 -245 45 -82 14 -161 28
-175 30 -14 3 -61 9 -105 15 -44 6 -91 13 -105 16 -41 7 -479 62 -550 69 -123
11 -175 16 -210 20 -19 2 -73 6 -120 10 -47 3 -101 8 -120 10 -19 2 -89 7
-155 10 -66 4 -149 9 -185 11 -72 6 -1076 14 -1082 9z m-4877 -4423 c305 -56
575 -267 709 -556 21 -44 46 -110 55 -146 9 -36 20 -74 23 -85 7 -21 10 -1898
15 -8205 1 -2109 5 -3844 8 -3855 4 -11 10 -40 14 -65 4 -25 9 -54 12 -65 2
-11 6 -31 9 -45 14 -69 80 -243 126 -333 43 -85 126 -217 148 -237 3 -3 23
-27 45 -55 132 -167 350 -342 549 -440 101 -49 103 -50 216 -60 41 -3 91 -8
110 -10 19 -2 62 -6 95 -10 33 -3 96 -10 140 -15 44 -5 103 -12 130 -15 28 -3
68 -8 90 -11 22 -3 51 -7 65 -9 125 -18 199 -30 280 -46 96 -19 129 -19 410
-4 47 2 155 7 240 11 85 3 177 8 204 9 28 2 766 7 1640 10 875 4 1942 8 2371
10 429 2 1078 4 1443 6 364 1 662 5 662 9 0 4 -10 18 -22 32 -13 13 -93 105
-178 203 -85 98 -159 183 -165 189 -5 6 -39 45 -75 86 -36 41 -69 80 -75 86
-5 6 -30 35 -55 64 -25 29 -54 62 -65 75 -38 42 -80 90 -135 155 -30 36 -59
70 -65 76 -225 250 -615 768 -704 935 -85 160 -88 411 -6 619 70 178 200 358
336 461 17 13 37 30 44 37 28 26 172 106 241 133 157 63 317 85 464 64 30 -4
55 -7 55 -6 0 1 41 -12 90 -29 52 -19 116 -51 152 -76 89 -63 416 -392 714
-718 35 -39 84 -90 108 -115 24 -26 64 -70 89 -99 25 -29 57 -65 71 -80 21
-23 168 -184 206 -226 6 -6 42 -47 80 -91 39 -44 79 -89 90 -101 11 -11 47
-52 80 -90 33 -38 96 -109 139 -157 44 -49 111 -126 150 -171 159 -184 321
-372 331 -382 5 -6 30 -35 55 -64 25 -30 59 -70 76 -90 17 -19 42 -48 56 -65
29 -33 264 -310 279 -329 5 -6 28 -33 51 -60 24 -27 50 -58 58 -70 8 -12 20
-27 28 -35 13 -14 246 -297 291 -355 14 -17 57 -71 96 -121 202 -255 298 -396
319 -468 26 -90 38 -179 39 -282 1 -138 -9 -190 -50 -264 -33 -60 -49 -85
-142 -216 -32 -45 -252 -331 -293 -380 -23 -27 -75 -92 -118 -145 -41 -51
-249 -300 -265 -316 -5 -6 -31 -35 -56 -65 -152 -178 -196 -229 -238 -275 -25
-28 -59 -66 -76 -85 -82 -94 -182 -206 -200 -225 -11 -11 -49 -53 -85 -93 -36
-40 -78 -88 -95 -105 -16 -18 -58 -64 -91 -102 -34 -38 -75 -83 -90 -99 -26
-27 -173 -190 -199 -219 -5 -7 -37 -41 -70 -77 -33 -35 -99 -107 -146 -159
-48 -52 -102 -111 -120 -131 -19 -20 -83 -89 -144 -155 -135 -145 -378 -395
-500 -514 -302 -295 -500 -424 -695 -454 -45 -7 -284 -7 -330 0 -53 8 -202 33
-225 38 -50 10 -152 50 -180 69 -90 63 -230 240 -309 388 -162 305 -165 555
-8 858 36 72 150 252 189 301 133 168 215 270 234 290 13 14 47 53 74 85 28
33 57 66 66 75 12 12 94 102 224 246 87 97 162 179 170 188 74 78 376 440 400
479 10 17 24 20 160 32 76 7 98 14 44 16 -19 1 -81 3 -139 5 -169 5 -1765 15
-2937 17 -859 2 -1083 5 -1083 15 0 6 -4 12 -10 12 -5 0 -7 -6 -4 -13 3 -9 -6
-13 -33 -12 -25 1 -37 5 -35 14 1 7 -2 10 -8 6 -6 -3 -7 -12 -3 -18 4 -7 -2
-5 -12 3 -10 8 -16 10 -13 5 8 -12 -81 -13 -101 -1 -6 4 -19 2 -27 -5 -12 -10
-20 -10 -34 -1 -12 7 -21 8 -25 2 -4 -6 -12 -7 -18 -3 -17 10 -47 11 -41 1 6
-10 -10 -11 -20 -1 -10 10 -66 11 -60 1 3 -4 1 -8 -5 -8 -5 0 -12 4 -15 8 -6
10 -43 9 -69 -3 -9 -4 -23 -2 -31 4 -7 6 -16 8 -20 4 -9 -9 -96 -12 -91 -2 6
9 -15 6 -32 -4 -6 -4 -15 -3 -18 3 -5 8 -11 7 -21 -1 -10 -8 -14 -8 -14 0 0 7
-19 10 -52 9 l-53 -1 50 -7 c46 -6 44 -7 -24 -7 -44 0 -66 4 -55 8 15 6 14 7
-8 6 -15 -1 -24 -5 -22 -9 3 -4 0 -8 -5 -8 -6 0 -11 5 -11 10 0 6 -8 10 -17
10 -14 0 -15 -2 -4 -9 9 -6 4 -8 -17 -8 -17 1 -28 5 -26 9 3 5 0 8 -5 8 -6 0
-11 -4 -11 -10 0 -5 -5 -10 -11 -10 -5 0 -7 6 -3 12 5 8 0 7 -11 -2 -11 -9
-16 -10 -11 -2 4 6 3 12 -3 12 -5 0 -13 -5 -16 -10 -5 -8 -11 -8 -20 0 -9 7
-15 8 -20 1 -6 -11 -40 -10 -51 2 -10 10 -26 9 -20 -1 3 -5 -1 -9 -9 -9 -8 0
-12 4 -9 9 8 12 -10 10 -24 -4 -9 -9 -12 -9 -12 0 0 7 -5 12 -11 12 -5 0 -7
-6 -3 -12 6 -10 4 -10 -7 -1 -14 14 -33 18 -25 5 2 -4 -5 -9 -17 -9 -17 -2
-19 0 -7 7 13 8 12 10 -2 10 -10 0 -18 -6 -19 -12 0 -10 -2 -10 -6 0 -2 6 -9
12 -14 12 -6 0 -7 -6 -3 -12 6 -10 4 -10 -7 -1 -7 7 -20 13 -28 13 -14 0 -14
-1 -1 -10 12 -7 10 -9 -7 -7 -12 0 -19 5 -17 9 3 4 -2 8 -10 8 -9 0 -16 -6
-17 -12 0 -10 -2 -10 -6 0 -2 6 -9 12 -14 12 -6 0 -7 -6 -3 -12 6 -10 4 -10
-7 -1 -7 7 -22 13 -33 12 -21 0 -21 0 -1 -9 11 -5 14 -9 7 -9 -7 -1 -21 5 -32
12 -17 10 -22 9 -30 -3 -6 -10 -10 -11 -10 -2 0 6 -5 12 -11 12 -5 0 -7 -6 -3
-12 6 -10 4 -10 -7 -1 -7 7 -20 13 -28 13 -14 0 -14 -1 -1 -10 9 -6 10 -10 3
-10 -6 0 -15 4 -18 10 -8 13 -122 13 -130 0 -3 -5 -12 -10 -18 -10 -7 0 -6 4
3 10 10 6 -280 10 -830 11 -465 0 -867 2 -895 4 -27 2 -88 6 -135 9 -47 3 -96
8 -110 10 -14 2 -50 7 -80 11 -30 4 -64 9 -75 11 -11 2 -42 7 -70 10 -27 4
-60 10 -72 15 -13 5 -23 7 -23 4 0 -2 -15 1 -32 6 -18 5 -48 12 -66 15 -59 10
-275 74 -397 119 -531 193 -999 511 -1420 966 -182 197 -346 416 -479 642 -48
82 -138 262 -176 352 -24 55 -48 114 -55 130 -39 91 -112 329 -140 455 -2 8
-10 44 -18 80 -9 36 -18 85 -22 110 -3 25 -10 68 -15 95 -5 28 -12 79 -16 115
-4 36 -8 74 -10 85 -1 11 -6 83 -10 160 -9 173 -10 11905 -1 11995 33 322 241
616 544 769 53 26 133 57 176 67 9 2 27 6 40 9 12 3 45 9 72 12 28 3 52 7 53
8 8 7 261 -4 313 -13z m5230 -1 c163 -28 322 -103 456 -213 52 -43 156 -153
197 -208 22 -30 59 -91 81 -135 75 -146 103 -269 103 -455 1 -291 -97 -518
-314 -733 -147 -146 -335 -243 -534 -277 -80 -14 -258 -17 -327 -7 -227 34
-424 134 -583 296 -149 152 -250 335 -276 501 -3 19 -9 53 -14 74 -25 116 1
384 50 501 4 11 14 36 21 55 7 19 23 52 36 72 13 21 23 40 23 43 0 14 111 154
156 197 89 85 99 94 144 125 187 128 380 184 615 177 61 -1 135 -7 166 -13z
m-12 -3351 c68 -12 171 -48 224 -77 91 -51 217 -160 287 -249 89 -114 154
-275 168 -419 8 -88 6 -7647 -2 -7730 -14 -133 -78 -287 -164 -395 -144 -180
-323 -293 -523 -330 -70 -13 -241 -17 -303 -6 -192 32 -344 109 -481 243 -122
120 -197 251 -242 428 -12 47 -14 7769 -2 7840 35 208 159 405 343 544 112 85
249 143 371 156 33 4 61 8 63 10 7 6 205 -5 261 -15z m-1456 -12917 c-7 -2
-19 -2 -25 0 -7 3 -2 5 12 5 14 0 19 -2 13 -5z m144 1 c-3 -3 -12 -4 -19 -1
-8 3 -5 6 6 6 11 1 17 -2 13 -5z m120 0 c-3 -3 -12 -4 -19 -1 -8 3 -5 6 6 6
11 1 17 -2 13 -5z"/>
<path d="M14338 7023 c7 -3 16 -2 19 1 4 3 -2 6 -13 5 -11 0 -14 -3 -6 -6z"/>
</g>
</svg>
